<svg viewBox="0 0 96 96" xmlns="http://www.w3.org/2000/svg" xmlns:xlink="http://www.w3.org/1999/xlink" id="Icons_Boot_M" overflow="hidden"><g id="Icons"><path d="M8 24.006 8 73.021 28 73.021 31 70.021 34 73.021 37 70.021 40 73.021 43 70.021 46 73.021 49 70.021 52 73.021 55 70.021 58 73.021 61 70.021 64 73.021 67 70.021 70 73.021 73 70.021 76 73.021 88 73.021 88 63.021C88 63.021 87.8 48.016 74 48.016L70 48.016C70 48.016 52.1 47.916 47.4 33.416 47.382 33.367 47.355 33.27 47.323 33.148 47.1046 32.2892 46.9961 31.4061 47 30.52L47 24.007C46.9967 22.9038 46.1032 22.0103 45 22.007L10 22.007C8.89719 22.0103 8.00384 22.9032 8 24.006ZM10 45.031C12.288 45.212 18.448 46.099 22.863 50.431 26.082 53.751 27.783 58.322 27.963 64L10 64ZM86 67.019 86 71.019 76.832 71.019 74.418 68.603 73 67.191 71.585 68.605 70 70.192 68.415 68.605 67 67.191 65.586 68.605 64 70.192 62.414 68.605 61 67.191 59.586 68.605 58 70.192 56.414 68.605 55 67.191 53.585 68.605 52 70.192 50.414 68.605 49 67.191 47.586 68.605 46 70.192 44.415 68.605 43 67.191 41.586 68.605 40 70.192 38.414 68.605 37 67.191 35.585 68.605 34 70.192 32.414 68.605 31 67.191 29.585 68.605 27.171 71.021 10 71.021 10 66 86 66ZM73 50.013 74 50.013C85.629 50.013 85.991 62.513 86 63.018L86 64 73 64ZM45.388 33.641C45.429 33.799 45.469 33.932 45.5 34.026 50.587 49.726 69.2 50.009 70 50.013L71 50.013 71 64 29.963 64C29.777 57.781 27.888 52.74 24.281 49.021 19.256 44.09 12.434 43.187 10 43.021L10 31 45.031 31C45.0556 31.8905 45.1753 32.7759 45.388 33.641ZM45 24.007 45 29 10 29 10 24.006 45 24.006Z"/><path d="M44.842 46.634C44.9064 46.6777 44.9732 46.7177 45.042 46.754 45.7708 47.174 46.6872 47.0763 47.311 46.512 47.9663 45.951 48.1828 45.0302 47.846 44.236 47.7142 43.9347 47.511 43.6701 47.254 43.465 47.1545 43.3849 47.0477 43.3142 46.935 43.254 46.8039 43.1838 46.6654 43.1285 46.522 43.089 46.3522 43.0401 46.1767 43.0142 46 43.012L46 43.012C45.1962 43.0141 44.4713 43.4958 44.158 44.236 44.0534 44.4813 43.9996 44.7453 44 45.012 44.0028 45.6568 44.3163 46.2607 44.842 46.634Z"/><path d="M52 52.014C53.1046 52.0149 54.0008 51.1203 54.0017 50.0157 54.0026 48.9111 53.1079 48.0149 52.0034 48.014 50.8988 48.0131 50.0026 48.9077 50.0017 50.0123 50.0013 50.4104 50.1198 50.7996 50.342 51.13 50.7132 51.6821 51.3347 52.0134 52 52.014Z"/><path d="M58.226 54.857C58.7226 55.0676 59.2834 55.0676 59.78 54.857 60.5172 54.5408 60.9965 53.8172 61 53.015 61.0004 52.748 60.9466 52.4837 60.842 52.238 60.834 52.218 60.821 52.202 60.812 52.182 60.3445 51.1812 59.1543 50.7489 58.1535 51.2164 57.4541 51.5431 57.0052 52.2431 57 53.015 56.9996 53.2817 57.0534 53.5457 57.158 53.791 57.3626 54.2712 57.7454 54.6533 58.226 54.857Z"/><path d="M41.225 40.853C41.7216 41.0636 42.2824 41.0636 42.779 40.853 43.2584 40.6487 43.6401 40.2666 43.844 39.787 43.9479 39.5415 44.001 39.2776 44 39.011 44 38.4807 43.7888 37.9722 43.413 37.598 43.2302 37.4156 43.0143 37.2697 42.777 37.168 42.2804 36.9574 41.7196 36.9574 41.223 37.168 40.9858 37.2695 40.7703 37.4154 40.588 37.598 40.0104 38.171 39.8401 39.0381 40.158 39.787 40.3623 40.267 40.7448 40.6491 41.225 40.853Z"/></g></svg>