<svg viewBox="0 0 96 96" xmlns="http://www.w3.org/2000/svg" xmlns:xlink="http://www.w3.org/1999/xlink" id="Icons_DryCleaning_M" overflow="hidden"><g id="Icons"><path d="M56 19.13 49 19.13 49 17.983C48.9836 16.5727 48.0669 15.331 46.724 14.9 45.0545 14.344 43.9474 12.7588 44 11 44.1547 8.92201 45.807 7.27019 47.885 7.116 50.0932 7.05304 51.9344 8.79213 51.9974 11.0004 51.9985 11.0389 51.999 11.0775 51.999 11.116 51.999 11.6683 52.4467 12.116 52.999 12.116 53.5513 12.116 53.999 11.6683 53.999 11.116 54.0003 7.80229 51.3151 5.11493 48.0014 5.11362 47.9442 5.1136 47.8871 5.11439 47.83 5.116 44.6962 5.31138 42.1975 7.80833 42 10.942 41.9153 13.5838 43.5776 15.9669 46.086 16.8 46.6156 16.9534 46.9852 17.4318 47 17.983L47 19.13 40 19.13C26.7513 19.1449 16.0149 29.8813 16 43.13L16 91 80 91 80 43.13C79.9851 29.8813 69.2487 19.1449 56 19.13ZM78 89 18 89 18 43.13C18.0138 30.9854 27.8554 21.1438 40 21.13L56 21.13C68.1446 21.1438 77.9862 30.9854 78 43.13Z"/><path d="M59.965 24.836 59.813 24.825 36.178 24.825 36.026 24.836C29.9981 25.7683 25.3456 30.6291 24.678 36.692L20.831 73.683C20.7441 74.1212 20.8414 74.5758 21.1 74.94 21.409 75.371 21.8823 75.6551 22.408 75.725L29.96 76.483C30.0644 76.5041 30.1705 76.5148 30.277 76.515 30.6136 76.5135 30.9417 76.4088 31.217 76.215 31.6397 75.9144 31.9211 75.4542 31.996 74.941L33.096 66.847C33.0977 66.8418 33.1034 66.8389 33.1086 66.8406 33.1116 66.8416 33.114 66.844 33.115 66.847L33.115 82C33.115 82.5523 33.5627 83 34.115 83L61.878 83C62.4303 83 62.878 82.5523 62.878 82L62.878 67.215C62.8797 67.2097 62.8854 67.2069 62.8906 67.2086 62.8936 67.2096 62.896 67.212 62.897 67.215L63.931 75C64.0925 75.9226 64.9281 76.5717 65.862 76.5L73.6 75.71C74.4762 75.542 75.1073 74.7721 75.1 73.88 75.0999 73.8466 75.0979 73.8132 75.094 73.78L71.308 36.69C70.6484 30.6255 65.9945 25.762 59.965 24.836ZM38.152 26.825 38.465 26.825 45.634 50.125C45.6353 50.1304 45.6321 50.1358 45.6267 50.1371 45.6226 50.1381 45.6183 50.1365 45.616 50.133L34.865 32.93ZM40.557 26.825 55.433 26.825 48.005 50.966C48.0033 50.9712 47.9976 50.9741 47.9924 50.9724 47.9894 50.9714 47.987 50.969 47.986 50.966ZM57.525 26.825 57.838 26.825 61.125 32.93 50.374 50.13C50.3709 50.1346 50.3647 50.1358 50.3601 50.1327 50.3566 50.1304 50.355 50.1261 50.356 50.122ZM34.113 48.567C33.5607 48.567 33.113 49.0147 33.113 49.567L33.113 51.867 30.037 74.486 22.829 73.757 26.667 36.9C27.2189 31.9273 30.928 27.8848 35.835 26.908L32.553 33.002 46.816 55.822 41.439 64.422 41.439 81 35.113 81 35.113 49.567C35.113 49.0147 34.6653 48.567 34.113 48.567ZM65.878 74.49 62.878 51.874 62.878 49.567C62.878 49.0147 62.4303 48.567 61.878 48.567 61.3257 48.567 60.878 49.0147 60.878 49.567L60.878 81 43.439 81 43.439 65 63.439 33.005 60.156 26.905C65.0914 27.8287 68.8264 31.8968 69.326 36.893L73.088 73.753Z"/><path d="M47.223 65.072C46.3692 65.0714 45.6766 65.7632 45.676 66.617 45.6754 67.4708 46.3672 68.1634 47.221 68.164 48.0748 68.1645 48.7674 67.4728 48.768 66.619 48.768 66.6183 48.768 66.6177 48.768 66.617 48.7647 65.7651 48.0749 65.0753 47.223 65.072Z"/><path d="M47.223 70.48C46.3692 70.4795 45.6766 71.1712 45.676 72.025 45.6754 72.8788 46.3672 73.5714 47.221 73.572 48.0748 73.5725 48.7674 72.8808 48.768 72.027 48.768 72.0267 48.768 72.0263 48.768 72.026 48.7653 71.1737 48.0753 70.4833 47.223 70.48Z"/></g></svg>