<svg viewBox="0 0 96 96" xmlns="http://www.w3.org/2000/svg" xmlns:xlink="http://www.w3.org/1999/xlink" id="Icons_Pants_M" overflow="hidden"><g id="Icons"><rect x="50" y="10" width="9" height="2"/><rect x="37" y="10" width="9" height="2"/><path d="M69.5 4 26.507 4C24.8758 4.00055 23.5536 5.32278 23.553 6.954L23.553 91C23.553 91.5523 24.0007 92 24.553 92L39.209 92C39.7092 92.0001 40.1325 91.6306 40.2 91.135L47.993 33.976C47.9947 33.9708 48.0004 33.9679 48.0056 33.9696 48.0086 33.9706 48.011 33.973 48.012 33.976L55.805 91.135C55.8727 91.6321 56.2983 92.0021 56.8 92L71.452 92C72.0043 92 72.452 91.5523 72.452 91L72.452 6.955C72.452 5.32417 71.1308 4.00166 69.5 4ZM57.669 90 48.993 26.365C48.9171 25.818 48.412 25.4361 47.865 25.512 47.4219 25.5735 47.0735 25.9219 47.012 26.365L38.336 90 25.553 90 25.553 12 33 12 33 10 25.553 10 25.553 6.955C25.553 6.42796 25.98 6.00055 26.507 6L69.5 6C70.0268 6.0011 70.4535 6.42819 70.454 6.955L70.454 10 63 10 63 12 70.452 12 70.452 90Z"/></g></svg>