<svg viewBox="0 0 96 96" xmlns="http://www.w3.org/2000/svg" xmlns:xlink="http://www.w3.org/1999/xlink" id="Icons_Bed_M" overflow="hidden"><g id="Icons"><path d="M8 60 88 60 88 72 90 72 90 40C90 39.4477 89.5523 39 89 39 88.4477 39 88 39.4477 88 40L88 55.756 88 55.756 87.994 55.627C87.7917 51.9115 84.721 49.0019 81 49L31.028 49C31.6561 48.1634 31.997 47.1462 32 46.1L32 45.9C31.9972 43.195 29.8051 41.0028 27.1 41L12.9 41C10.5438 41.0037 8.52377 42.6839 8.091 45L8 45 8 25C8 24.4477 7.55228 24 7 24 6.44772 24 6 24.4477 6 25L6 72 8 72ZM10 45.9C10 44.2984 11.2984 43 12.9 43L27.1 43C28.7016 43 30 44.2984 30 45.9L30 46.1C30 47.7016 28.7016 49 27.1 49L12.9 49C11.2984 49 10 47.7016 10 46.1ZM8 51 81 51C83.7601 51.0033 85.9967 53.2399 86 56L86 58 8 58Z"/></g></svg>