<svg viewBox="0 0 96 96" xmlns="http://www.w3.org/2000/svg" xmlns:xlink="http://www.w3.org/1999/xlink" id="Icons_Shoe_M" overflow="hidden"><g id="Icons"><path d="M90 53.715C89.905 52.472 88.348 49.495 85.417 49.494 85.281 49.494 85.142 49.5 85 49.514 83.7193 49.6523 82.4321 49.722 81.144 49.723 75.0686 49.6573 69.1062 48.0725 63.8 45.113L62 44.113C60.0742 43.0076 58.2052 41.8061 56.4 40.513L54.8 39.313C53 38.013 51.3 36.713 49.5 35.413L47.9 34.213C45.0664 32.1203 42.0549 30.2799 38.9 28.713 38.6159 28.5897 38.3097 28.5257 38 28.525 36.9155 28.505 36.0201 29.368 36.0002 30.4525 35.9998 30.473 35.9997 30.4935 36 30.514L36 33.514C31.2896 35.4425 26.2528 36.4487 21.163 36.478 16.9678 36.5132 12.8049 35.7429 8.9 34.209 8.66991 34.1176 8.42456 34.0708 8.177 34.071 7.35858 34.0672 6.61816 34.5559 6.3 35.31 4.91132 39.2354 4.13556 43.3514 4 47.513L4 67.519 27 67.519 29 62.519 33 62.519C37.4 62.519 42.4 63.619 47.2 64.719 50.4 65.419 53.7 66.119 56.7 66.519L57.1 66.519C60.4444 67.0163 63.819 67.2836 67.2 67.319 73.8 67.319 81.7 66.019 92 60.919L92 58.019ZM8.141 36.06C12.2879 37.6905 16.7092 38.5097 21.165 38.473 26.5091 38.4415 31.7976 37.3868 36.745 35.366L38.002 34.866 38.002 33.509 38.002 30.534C38.0017 30.529 38.0055 30.5248 38.0105 30.5245 38.0117 30.5244 38.0129 30.5246 38.014 30.525 38.074 30.55 38.343 30.662 38.452 30.716 41.3367 32.184 44.0954 33.8874 46.7 35.809L47.314 36.27 43.291 40.293C42.8937 40.6767 42.8827 41.3097 43.2664 41.707 43.6501 42.1043 44.2832 42.1153 44.6804 41.7316 44.6888 41.7235 44.697 41.7153 44.705 41.707L48.935 37.477C49.6143 37.973 50.2887 38.4693 50.958 38.966 51.84 39.621 52.722 40.277 53.601 40.911L54.213 41.37 51.291 44.293C50.8937 44.6767 50.8827 45.3097 51.2664 45.707 51.6501 46.1043 52.2832 46.1153 52.6804 45.7316 52.6888 45.7235 52.697 45.7153 52.705 45.707L55.847 42.565C57.4063 43.6597 59.134 44.7597 61.03 45.865L61.476 46.112 59.329 48.259C58.9187 48.6585 58.9099 49.3151 59.3094 49.7254 59.3158 49.732 59.3224 49.7386 59.329 49.745 59.724 50.1026 60.3301 50.0877 60.707 49.711L63.313 47.1C68.7888 50.0804 74.9139 51.6677 81.148 51.722 82.4986 51.721 83.8481 51.6482 85.191 51.504 85.269 51.497 85.346 51.493 85.421 51.493 87.121 51.493 87.967 53.468 88.01 53.867L88.038 54.229 88.191 54.557 88.458 55.132C74.383 61.848 65.17 60.708 57.729 59.765L57.272 59.758C54.553 59.38 51.597 58.8 48.217 57.98L47.765 57.88C42.801 56.786 37.665 55.655 32.901 55.655L11 55.655C9.24698 55.6804 7.52221 55.2119 6.023 54.303L6 54.344 6 47.513C6.13559 43.6096 6.85733 39.7488 8.141 36.06ZM90.005 59.66C81.92 63.514 74.646 65.314 67.205 65.314 63.9123 65.278 60.6259 65.0163 57.369 64.531L57.238 64.514 56.838 64.514C53.938 64.12 50.703 63.432 47.65 62.764 42.276 61.537 37.466 60.518 33 60.518L27.647 60.518 27.147 61.775 25.647 65.519 6 65.519 6 56.543C7.56148 57.2862 9.2707 57.667 11 57.657L32.9 57.657C37.448 57.657 42.474 58.764 47.334 59.835L47.766 59.93C50.8335 60.6921 53.9374 61.2992 57.066 61.749L57.539 61.759C60.6459 62.2099 63.7789 62.4581 66.918 62.502 72.906 62.502 80.098 61.355 89.307 56.958L90.007 58.458Z"/></g></svg>