<svg viewBox="0 0 96 96" xmlns="http://www.w3.org/2000/svg" xmlns:xlink="http://www.w3.org/1999/xlink" id="Icons_AlterationsTailoring" overflow="hidden"><path d="M76.186 36.692 78.11 35.086C80.938 32.257 80.71 27.444 77.601 24.335 74.9653 21.4941 70.6332 21.0443 67.47 23.283 68.5611 25.0954 69.9084 26.7408 71.47 28.168 72.547 27.678 73.419 27.568 73.842 27.993 74.553 28.704 73.807 30.653 72.159 32.774 67.788 28.674 63.697 24.788 63.697 19.474 63.697 12.653 72.186 11.034 72.548 10.969 73.6357 10.7757 74.3608 9.73722 74.1675 8.6495 73.9742 7.56178 72.9357 6.8367 71.848 7.03 67.65 7.77 59.7 11.323 59.7 19.474 59.7 26.499 64.6 31.174 69.4 35.674 67.007 37.737 64.677 38.746 63.885 37.953 63.336 37.404 63.662 36.112 64.593 34.578 63.3174 33.3366 62.1327 32.0052 61.048 30.594L13.481 86.108C13.0701 86.5829 13.122 87.3009 13.5968 87.7118 14.0199 88.0779 14.6464 88.0818 15.074 87.721L73.113 39.258C76.423 42.688 78.904 46.316 78.537 51.153 77.86 60.082 68.989 61.953 61.667 61.953 60.5624 61.953 59.667 62.8484 59.667 63.953 59.667 65.0576 60.5624 65.953 61.667 65.953 74.409 65.953 81.816 60.804 82.525 51.453 83 45.2 79.9 40.6 76.186 36.692Z"/></svg>