<svg viewBox="0 0 96 96" xmlns="http://www.w3.org/2000/svg" xmlns:xlink="http://www.w3.org/1999/xlink" id="Icons_FormalShirt_M" overflow="hidden"><g id="Icons"><path d="M90.338 40.467 76.262 17.005C75.8636 16.34 75.2226 15.8556 74.474 15.654L61.774 12.215 57.309 8C56.7692 7.49094 56.1078 7.12905 55.388 6.949L53.755 6.541C49.9686 5.59448 46.0074 5.59448 42.221 6.541L40.59 6.949C39.8702 7.12905 39.2088 7.49094 38.669 8L34.2 12.215 21.5 15.654C20.7512 15.8551 20.1102 16.3401 19.713 17.006L5.641 40.467C5.08024 41.4074 5.37709 42.6237 6.308 43.2L17.608 50.152C18.5489 50.7307 19.7807 50.437 20.3593 49.4962 20.3633 49.4898 20.3672 49.4834 20.371 49.477L24.972 41.8C24.9753 41.7956 24.9816 41.7947 24.986 41.798 24.9885 41.7999 24.99 41.8029 24.99 41.806L24.99 90.554 70.99 90.554 70.99 41.808C70.9888 41.8026 70.9922 41.7973 70.9976 41.7961 71.0023 41.795 71.0071 41.7975 71.009 41.802L75.609 49.478C76.1776 50.425 77.4063 50.7317 78.3532 50.163 78.3598 50.1591 78.3664 50.1551 78.373 50.151L89.673 43.2C90.6027 42.6227 90.8985 41.4069 90.338 40.467ZM60.692 14.154 53.2 25.811 49.189 17.787 56.212 9.887ZM42.705 8.48C46.1749 7.618 49.8031 7.618 53.273 8.48L54.508 8.789 47.989 16.123 41.47 8.789ZM39.769 9.88 46.792 17.78 42.78 25.811 35.286 14.154ZM26.057 34.4C25.5188 34.3144 24.9999 34.6387 24.841 35.16L24.041 39.47 18.654 48.448 7.355 41.5 21.433 18.035C21.5649 17.8128 21.7784 17.6509 22.028 17.584L33.173 14.565 42.048 28.37C42.2318 28.6565 42.5487 28.8298 42.889 28.83L42.942 28.83C43.301 28.8109 43.6221 28.6005 43.783 28.279L46.989 21.867 46.989 88.554 26.989 88.554 26.989 35.488C26.992 34.9441 26.5949 34.4805 26.057 34.4ZM77.326 48.448 71.939 39.47 71.167 35.277 71.138 35.16C70.9569 34.5801 70.34 34.2568 69.7601 34.4379 69.3008 34.5813 68.9879 35.0067 68.988 35.488L68.988 88.554 48.988 88.554 48.988 21.865 52.2 28.277C52.3609 28.5985 52.682 28.8089 53.041 28.828L53.095 28.828C53.4353 28.8278 53.7522 28.6545 53.936 28.368L62.81 14.563 73.95 17.584C74.201 17.6507 74.4161 17.8125 74.55 18.035L88.623 41.5Z"/><rect x="55.989" y="35.83" width="9" height="2"/></g></svg>