<svg viewBox="0 0 96 96" xmlns="http://www.w3.org/2000/svg" xmlns:xlink="http://www.w3.org/1999/xlink" id="Icons_Dirndl" overflow="hidden"><rect x="46.5309" y="27.525" width="2.94996" height="2.94996" transform="matrix(0.707107 -0.707107 0.707107 0.707107 -6.44549 42.4392)"/><path d="M31.9341 6.08936C31.8301 6.1167 21.5049 9.00684 21.5049 23 21.505 23.5291 21.7836 24.0191 22.2383 24.2896L27.6885 27.5293C27.9205 27.6671 28.1853 27.7398 28.4551 27.7397 28.4913 27.7397 28.5279 27.7383 28.564 27.7358 30.6319 27.5863 32.539 26.5655 33.8102 24.9276L35.8767 35.627C36.0769 36.6715 35.9067 37.7531 35.3955 38.6857 33.4264 42.2935 30.2627 47.5465 26.9171 54.6177 22.8348 63.2461 19.3831 76.4453 18.3334 80.6585 18.1296 81.4853 18.4704 82.3506 19.1833 82.8163 25.374 86.9143 34.4729 90 47.8879 90L48.124 90C61.5389 90 70.6378 86.9144 76.8284 82.8163 77.5414 82.3506 77.8822 81.4852 77.6783 80.6584 76.6282 76.4451 73.1755 63.2461 69.0948 54.6177 65.7493 47.5439 62.582 42.2919 60.6158 38.6837 60.1052 37.751 59.9354 36.6695 60.1355 35.6252L62.1981 24.9455C63.4704 26.587 65.3861 27.6033 67.4586 27.7363 67.4913 27.7388 67.524 27.7397 67.5567 27.7397 67.8265 27.7398 68.0913 27.6671 68.3233 27.5293L73.7735 24.2896C74.2282 24.0191 74.5069 23.5291 74.5069 23 74.5069 9.12421 64.3599 6.16766 64.0882 6.09235L63.0947 6.00435 59.9186 6 59.119 6C58.567 6.00001 58.1196 6.44747 58.1195 6.99945L58.1195 7.9989C58.1195 11.8679 54.9831 15.0044 51.114 15.0044L44.8978 15.0044C41.0287 15.0044 37.8923 11.8679 37.8923 7.9989L37.8923 6.99945C37.8922 6.44748 37.4448 6.00002 36.8928 6L36.0933 6 33.005 6.00342ZM71.4927 22.1553 67.2217 24.6938C63.982 24.166 63.1685 20.3066 63.1319 20.1245 63.1241 20.0845 63.1148 20.0444 63.1036 20.0054 61.838 15.5083 62.2007 11.4404 63.2134 9.74609 63.3455 9.50935 63.5236 9.30149 63.7374 9.13477 65.4005 9.76807 71.169 12.6445 71.4927 22.1553ZM43.7989 29.707C43.4084 29.3167 43.4082 28.6838 43.7985 28.2933 43.7986 28.2932 43.7988 28.2931 43.7989 28.2929L46.5919 25.4999 43.7989 22.7069C43.4111 22.3138 43.4155 21.6807 43.8086 21.2929 44.198 20.9089 44.8237 20.9089 45.213 21.293L48.006 24.086 50.799 21.293C51.1859 20.899 51.819 20.8933 52.213 21.2802 52.607 21.6671 52.6127 22.3002 52.2258 22.6942 52.2216 22.6985 52.2173 22.7028 52.213 22.707L49.42 25.5 52.213 28.293C52.6035 28.6833 52.6037 29.3162 52.2134 29.7067 52.2133 29.7068 52.2131 29.7069 52.213 29.7071L49.42 32.5 52.213 35.293C52.6043 35.6827 52.6055 36.3158 52.2159 36.7071 51.8262 37.0983 51.1931 37.0996 50.8018 36.7099 50.8008 36.7089 50.7999 36.708 50.7989 36.707L48.0059 33.914 45.2129 36.707C44.8189 37.0939 44.1858 37.0882 43.7989 36.6942 43.4169 36.3052 43.4169 35.682 43.7989 35.293L46.5919 32.5ZM32.9083 20.0054C32.897 20.0449 32.8878 20.0845 32.8799 20.125 32.8716 20.1665 32.0621 24.1289 28.7847 24.6904L24.5191 22.1553C24.8433 12.6353 30.6231 9.76221 32.274 9.13427 32.4879 9.30115 32.6662 9.50918 32.7984 9.74608 33.8111 11.4404 34.1739 15.5083 32.9083 20.0054ZM38.0049 41C40.8325 42.9549 44.1888 44.0014 47.6263 44L48.4743 44C51.8816 43.9876 55.2049 42.9415 58.0049 41L66.7768 69.4926C62.8677 71.7026 56.0022 73.0957 48.6998 73.0957L47.4009 73.0957C40.0895 73.0957 33.2162 71.699 29.3095 69.4844ZM48.7 80.596 47.4008 80.596C38.7532 80.596 31.0697 78.7214 27.3204 76.0001L28.4163 72.4105C32.8668 74.711 39.8535 76.0957 47.4009 76.0957L48.6998 76.0957C56.2428 76.0957 63.2255 74.7126 67.6764 72.4145L68.7803 76.0001C65.0309 78.7213 57.3475 80.596 48.7 80.596Z"/></svg>