<svg viewBox="0 0 96 96" xmlns="http://www.w3.org/2000/svg" xmlns:xlink="http://www.w3.org/1999/xlink" id="Icons_Storytelling" overflow="hidden"><path d="M73.9 2 73.9 2C74.6 4.6 76.5 6.8 79 8L79 8C76.5 9.2 74.7 11.4 73.9 14L73.9 14C73.2 11.4 71.3 9.2 68.8 8L68.8 8C71.3 6.8 73.2 4.6 73.9 2Z"/><path d="M9.9 24 9.9 24C10.6 26.6 12.5 28.8 15 30L15 30C12.5 31.2 10.7 33.4 9.9 36L9.9 36C9.2 33.4 7.3 31.2 4.8 30L4.8 30C7.3 28.8 9.2 26.6 9.9 24Z"/><path d="M19.8 4 19.8 4C20.4 6.2 22 8 24 9L24 9C21.9 10 20.4 11.8 19.8 14L19.8 14C19.2 11.8 17.6 10 15.6 9L15.6 9C17.6 8 19.2 6.2 19.8 4Z"/><path d="M85.8 20 85.8 20C86.4 22.2 88 24 90 25L90 25C87.9 26 86.4 27.8 85.8 30L85.8 30C85.2 27.8 83.6 26 81.6 25L81.6 25C83.6 24 85.2 22.2 85.8 20Z"/><path d="M48 39.5C47.2 39.5 46.5 38.8 46.5 38L46.5 28C46.5 27.2 47.2 26.5 48 26.5 48.8 26.5 49.5 27.2 49.5 28L49.5 38C49.5 38.8 48.8 39.5 48 39.5Z"/><path d="M48 23.5C47.2 23.5 46.5 22.8 46.5 22L46.5 14C46.5 13.2 47.2 12.5 48 12.5 48.8 12.5 49.5 13.2 49.5 14L49.5 22C49.5 22.8 48.8 23.5 48 23.5Z"/><path d="M48 9.5C47.2 9.5 46.5 8.8 46.5 8L46.5 4C46.5 3.2 47.2 2.5 48 2.5 48.8 2.5 49.5 3.2 49.5 4L49.5 8C49.5 8.8 48.8 9.5 48 9.5Z"/><path d="M59 32.5C58.9 32.5 58.8 32.5 58.7 32.5 57.9 32.3 57.4 31.5 57.6 30.7L59.3 22.9C59.5 22.1 60.3 21.6 61.1 21.8 61.9 22 62.4 22.8 62.2 23.6L60.5 31.4C60.3 32 59.7 32.5 59 32.5Z"/><path d="M62 18.8C61.9 18.8 61.8 18.8 61.7 18.8 60.9 18.6 60.4 17.8 60.6 17L60.6 17 61.9 11.1C62.1 10.3 62.8 9.8 63.7 9.9 64.5 10.1 65 10.8 64.9 11.7 64.9 11.7 64.9 11.7 64.9 11.8L63.6 17.7C63.3 18.3 62.7 18.8 62 18.8Z"/><path d="M69 30.5C68.2 30.5 67.5 29.8 67.5 29 67.5 28.7 67.6 28.4 67.8 28.1L74.6 18.2C75.1 17.5 76 17.4 76.7 17.9 77.3 18.4 77.5 19.2 77.1 19.9L70.3 29.8C70 30.3 69.5 30.5 69 30.5Z"/><path d="M37 32.5C36.3 32.5 35.7 32 35.5 31.3L33.4 21.5C33.2 20.7 33.8 19.9 34.6 19.7 35.4 19.5 36.2 20 36.3 20.8L38.4 30.6C38.6 31.4 38.1 32.2 37.3 32.4 37.2 32.5 37.1 32.5 37 32.5Z"/><path d="M33.6 16.9C32.9 16.9 32.3 16.4 32.1 15.7L31.3 11.8C31.1 11 31.6 10.2 32.4 10 33.2 9.8 34 10.3 34.2 11.1 34.2 11.1 34.2 11.1 34.2 11.2L35 15.1C35.2 15.9 34.7 16.7 33.9 16.9L33.9 16.9C33.8 16.9 33.7 16.9 33.6 16.9L33.6 16.9Z"/><path d="M27 30.5C26.5 30.5 26 30.3 25.8 29.9L19 20C18.6 19.3 18.8 18.4 19.5 17.9 20.2 17.5 21 17.6 21.5 18.3L28.3 28.2C28.8 28.9 28.6 29.8 27.9 30.3 27.6 30.4 27.3 30.5 27 30.5Z"/><path d="M91.8 81.9 88.8 49.5C88.7 48.5 87.8 47.7 86.8 47.7 86.4 47.7 85.8 47.7 85.3 47.7L84.8 41.9 83 41.8C81.5 41.7 80 41.8 78.6 41.9L78.1 36.5 76.6 36.2C66.1 34.9 55.6 38.4 48 45.8 40.4 38.4 29.9 34.9 19.4 36.2L17.9 36.5 17.4 41.9C15.9 41.8 14.5 41.7 13 41.8L11.3 41.9 10.8 47.7C10.2 47.7 9.7 47.7 9.3 47.7 8.3 47.7 7.4 48.5 7.3 49.5L4.3 81.9C4.1 83 4.9 84 6 84.1 6.1 84.1 6.2 84.1 6.3 84.1 12.4 83.9 29.5 84.3 43.4 93.4 44.1 93.8 44.8 94.1 45.6 94.1L50.6 94.1C51.4 94.1 52.1 93.9 52.7 93.5 67.3 84.4 83.9 84 89.8 84.2 90.9 84.2 91.8 83.4 91.9 82.3 91.8 82 91.8 82 91.8 81.9ZM50 49.4C56.4 42.8 65.3 39.4 74.4 39.9L77.1 70.9C72.4 71.8 60.2 74.8 50 83.6L50 49.4ZM21.6 40C30.7 39.5 39.6 42.9 46 49.5L46 83.7C35.8 74.9 23.6 71.9 18.9 71L21.6 40ZM12 77 15 45.7C15.6 45.7 16.3 45.8 17.1 45.8L14.6 74.4 16.5 74.6C16.7 74.6 33.6 76.8 45.4 88.5L45.4 88.5C32.3 78.5 17.7 77.2 12 77ZM50.6 88.7 50.6 88.7C62.6 76.9 79.4 74.6 79.5 74.6L81.4 74.4 78.9 45.8C79.7 45.7 80.4 45.7 81 45.7L84 77C78.3 77.2 63.7 78.6 50.6 88.7Z"/></svg>