<svg viewBox="0 0 96 96" xmlns="http://www.w3.org/2000/svg" xmlns:xlink="http://www.w3.org/1999/xlink" id="Icons_UglySweater_M" overflow="hidden"><g id="Icons"><path d="M85.412 76.1 79.512 28.087C79.512 28.072 79.512 28.056 79.505 28.041 78.525 22.294 76.445 18.778 72.326 15.906 69.4497 13.9598 66.0444 12.9453 62.572 13L58.261 13C57.062 12.9899 55.976 13.706 55.513 14.812 54.543 17.158 51.454 18.8 48 18.8 44.546 18.8 41.457 17.162 40.487 14.815 40.0247 13.708 38.9386 12.9906 37.739 13L34.065 13C30.2027 12.9497 26.4363 14.2028 23.374 16.557 19.729 19.457 17.891 22.786 17.023 28.08L11.035 76.02C10.9404 76.508 11.0487 77.0136 11.335 77.42 11.683 77.9052 12.2147 78.2265 12.806 78.309L21.621 79.295C22.1091 79.3912 22.6152 79.2827 23.021 78.995 23.4932 78.6601 23.8101 78.1488 23.9 77.577L26.9 59.435C26.9 59.4295 26.9045 59.425 26.91 59.425 26.9155 59.425 26.92 59.4295 26.92 59.435L26.92 80.819C26.92 81.9236 27.8154 82.819 28.92 82.819L67.62 82.819C68.7246 82.819 69.62 81.9236 69.62 80.819L69.62 59.683C69.62 59.6775 69.6245 59.673 69.63 59.673 69.6355 59.673 69.64 59.6775 69.64 59.683L72.54 77.615C72.7231 78.6148 73.6038 79.3346 74.62 79.315 74.6571 79.315 74.6941 79.313 74.731 79.309L83.717 78.3C84.7167 78.1161 85.4362 77.2353 85.417 76.219 85.4177 76.1793 85.416 76.1395 85.412 76.1ZM21.93 77.254C21.9262 77.2777 21.9188 77.3006 21.908 77.322L13.08 76.332C13.0563 76.3283 13.0333 76.3209 13.012 76.31L13.495 72.445 22.557 73.451ZM31.992 52.52C32.3784 52.8889 32.9866 52.8889 33.373 52.52L36.75 49.3 40.127 52.524C40.5134 52.8929 41.1216 52.8929 41.508 52.524L44.843 49.34 47.769 52.482C48.1459 52.8857 48.7787 52.9075 49.1824 52.5306 49.1991 52.515 49.2154 52.4988 49.231 52.482L52.157 49.34 55.492 52.524C55.8784 52.8929 56.4866 52.8929 56.873 52.524L60.25 49.3 63.627 52.524C64.0134 52.8929 64.6216 52.8929 65.008 52.524L67.619 50.031 67.619 72.8 28.919 72.8 28.919 49.584ZM28.916 80.82 28.916 74.8 67.616 74.8 67.616 80.823ZM69.851 48.46 69.851 40.915C69.851 40.3627 69.4033 39.915 68.851 39.915 68.2987 39.915 67.851 40.3627 67.851 40.915L67.851 46.485C67.7034 46.6601 67.6214 46.8811 67.619 47.11L67.619 47.262 64.319 50.414 60.94 47.19C60.5537 46.8217 59.9463 46.8217 59.56 47.19L56.183 50.414 52.806 47.19C52.6154 47.001 52.354 46.9012 52.086 46.915 51.8196 46.9226 51.5674 47.0368 51.386 47.232L48.502 50.332 45.618 47.232C45.4366 47.0368 45.1844 46.9226 44.918 46.915 44.6501 46.9019 44.389 47.0017 44.198 47.19L40.821 50.414 37.44 47.19C37.0537 46.8217 36.4463 46.8217 36.06 47.19L32.683 50.414 29.306 47.19C29.187 47.0821 29.0435 47.0049 28.888 46.965 28.8821 46.8973 28.8697 46.8303 28.851 46.765L28.851 40.915C28.851 40.3627 28.4033 39.915 27.851 39.915 27.2987 39.915 26.851 40.3627 26.851 40.915L26.851 47.427 22.883 71.476 13.743 70.46 19 28.366C19.772 23.65 21.4 20.682 24.617 18.122 27.3256 16.0485 30.6542 14.9486 34.065 15L37.739 15C38.1268 14.9952 38.4804 15.2211 38.639 15.575 39.93 18.7 43.691 20.8 48 20.8 52.309 20.8 56.07 18.7 57.36 15.58 57.5183 15.2257 57.872 14.9994 58.26 15.004L62.571 15.004C65.6337 14.9488 68.6394 15.8362 71.181 17.546 74.854 20.107 76.636 23.138 77.529 28.353L82.71 70.511 73.58 71.525ZM83.409 76.324 74.575 77.316C74.5407 77.3173 74.5111 77.2921 74.507 77.258L73.9 73.5 82.956 72.49 83.42 76.268C83.4208 76.2873 83.417 76.3065 83.409 76.324Z"/><path d="M32.611 62.3 30.818 64.093C30.4011 64.4553 30.3569 65.0869 30.7191 65.5038 31.0814 65.9206 31.713 65.9649 32.1299 65.6026 32.1664 65.5709 32.2005 65.5366 32.232 65.5L34.025 63.707 35.818 65.5C36.2153 65.8837 36.8483 65.8727 37.232 65.4754 37.6063 65.0879 37.6063 64.4735 37.232 64.086L35.439 62.3 37.232 60.5C37.6157 60.1027 37.6047 59.4697 37.2074 59.086 36.8199 58.7117 36.2055 58.7117 35.818 59.086L34.025 60.879 32.232 59.086C31.8483 58.6887 31.2153 58.6777 30.818 59.0614 30.4207 59.4451 30.4097 60.0782 30.7934 60.4754 30.8015 60.4838 30.8097 60.492 30.818 60.5Z"/><path d="M59.293 65.5C59.6835 65.8904 60.3165 65.8904 60.707 65.5L62.5 63.71 64.293 65.5C64.6903 65.8837 65.3233 65.8727 65.707 65.4754 66.0813 65.0879 66.0813 64.4735 65.707 64.086L63.914 62.3 65.707 60.5C66.0907 60.1027 66.0797 59.4697 65.6824 59.086 65.2949 58.7117 64.6805 58.7117 64.293 59.086L62.5 60.882 60.707 59.089C60.2981 58.7177 59.6657 58.7482 59.2944 59.1571 58.9487 59.5378 58.9481 60.1186 59.293 60.5L61.086 62.3 59.293 64.093C58.9073 64.4827 58.9073 65.1103 59.293 65.5Z"/><path d="M49.8 65.5C50.1905 65.8904 50.8235 65.8904 51.214 65.5L53.007 63.707 54.8 65.5C55.1973 65.8837 55.8303 65.8727 56.214 65.4754 56.5883 65.0879 56.5883 64.4735 56.214 64.086L54.423 62.3 56.216 60.5C56.5932 60.0966 56.572 59.4638 56.1687 59.0866 55.7832 58.7262 55.1841 58.7272 54.8 59.089L53.007 60.882 51.214 59.089C50.8051 58.7177 50.1727 58.7482 49.8014 59.1571 49.4557 59.5378 49.4551 60.1186 49.8 60.5L51.6 62.3 49.8 64.089C49.4116 64.4791 49.4116 65.1098 49.8 65.5Z"/><path d="M40.31 65.5C40.7005 65.8904 41.3335 65.8904 41.724 65.5L43.517 63.707 45.31 65.5C45.7073 65.8837 46.3403 65.8727 46.724 65.4754 47.0983 65.0879 47.0983 64.4735 46.724 64.086L44.931 62.3 46.724 60.5C47.1077 60.1027 47.0967 59.4697 46.6994 59.086 46.3119 58.7117 45.6975 58.7117 45.31 59.086L43.517 60.879 41.724 59.086C41.3403 58.6887 40.7073 58.6777 40.31 59.0614 39.9127 59.4451 39.9017 60.0782 40.2854 60.4754 40.2935 60.4838 40.3017 60.492 40.31 60.5L42.1 62.3 40.31 64.089C39.9216 64.4791 39.9216 65.1098 40.31 65.5Z"/></g></svg>